<?xml version="1.0" encoding="utf-8"?>
<!-- Generator: Adobe Illustrator 18.1.1, SVG Export Plug-In . SVG Version: 6.00 Build 0)  -->
<svg version="1.1" id="Layer_3" xmlns="http://www.w3.org/2000/svg" xmlns:xlink="http://www.w3.org/1999/xlink" x="0px" y="0px"
	 viewBox="0 0 792 612" enable-background="new 0 0 792 612" xml:space="preserve">
<symbol  id="New_Symbol_1" viewBox="-35.1 -35.1 70.2 70.2">
	<path fill="#0B91C6" d="M35.1,0c0-19.4-15.7-35.1-35.1-35.1S-35.1-19.4-35.1,0S-19.4,35.1,0,35.1S35.1,19.4,35.1,0z"/>
	<path fill="#0B91C6" stroke="#FFFFFF" stroke-width="1.849" stroke-miterlimit="10" d="M31.7,0c0-17.5-14.2-31.7-31.7-31.7
		S-31.7-17.5-31.7,0S-17.5,31.7,0,31.7S31.7,17.5,31.7,0z"/>
	<g>
		<path fill="#FFFFFF" d="M4.4,0c0-2.4-2-4.4-4.4-4.4l0,0c-2.4,0-4.4,2-4.4,4.4v13.3c0,2.4,2,4.4,4.4,4.4l0,0c2.4,0,4.4-2,4.4-4.4V0
			z"/>
		<path fill="#FFFFFF" d="M11.1,0v4.4H8.9V0c0-4.9-4-8.9-8.9-8.9s-8.9,4-8.9,8.9v4.4h-2.2V0c0-5.4,3.8-9.8,8.9-10.9v-2.4l-6.7-2.2
			v-2.2H8.9v2.2l-6.7,2.2v2.4C7.3-9.8,11.1-5.4,11.1,0z"/>
	</g>
</symbol>
<use xlink:href="#New_Symbol_1"  width="70.2" height="70.2" x="-35.1" y="-35.1" transform="matrix(7.6907 0 0 -7.6907 408.8799 300.7574)" overflow="visible"/>
</svg>
